<svg width="960" height="893" viewBox="0 0 960 893" fill="none" xmlns="http://www.w3.org/2000/svg">
<g clip-path="url(#clip0_39_373)">
<path d="M366.087 0.312487C358.288 1.31249 349.388 6.21249 343.589 12.6125C340.889 15.6125 304.491 73.7125 258.494 148.213C214.197 219.913 177.199 279.613 176.099 280.813L174.099 283.013L105.503 283.313C30.408 283.713 34.1077 283.413 23.1084 289.713C11.9091 296.013 2.20971 310.113 0.0098465 323.313C-0.390129 325.613 11.4091 420.413 32.9078 586.313C51.3067 728.913 66.6057 847.013 66.9057 848.813C67.4057 851.813 68.4056 852.513 82.7048 859.413C100.904 868.313 109.003 874.113 114.103 881.613C116.403 885.113 119.502 888.213 122.302 889.913L126.902 892.613L481.88 892.913C743.664 893.113 838.458 892.913 842.858 892.013C851.157 890.513 857.757 886.813 864.957 879.913C871.456 873.713 876.256 865.713 878.256 858.113C878.856 855.613 896.955 737.313 918.353 595.113C939.852 452.913 957.851 334.013 958.451 330.913C960.651 319.913 956.051 305.713 948.052 298.413C945.852 296.413 941.352 293.613 937.952 292.113C934.452 290.513 930.853 288.013 929.553 286.213L927.253 283.113L885.055 283.013H842.858L759.863 152.513C702.467 62.1125 675.368 20.4125 671.969 17.0125C669.269 14.3125 664.069 10.6125 660.469 8.81249C654.37 5.81249 653.27 5.61249 643.37 5.61249C633.371 5.61249 632.471 5.81249 625.371 9.21249C615.472 13.9125 611.072 17.9125 607.173 25.9125C604.273 31.7125 603.873 33.5125 603.873 40.6125C603.873 47.2125 604.373 49.5125 606.573 54.1125C607.972 57.1125 641.87 109.813 681.768 171.113L754.263 282.613L508.679 282.913C373.587 283.013 262.894 282.913 262.594 282.713C262.394 282.413 295.492 230.113 336.189 166.413C376.887 102.713 410.685 48.9125 411.385 46.8125C413.384 40.5125 412.284 29.5125 409.085 22.9125C401.685 7.71249 383.286 -1.88751 366.087 0.312487Z" fill="#C68916"/>
</g>
<defs>
<clipPath id="clip0_39_373">
<rect width="960" height="893" fill="white"/>
</clipPath>
</defs>
</svg>
