<!-- <svg xmlns="http://www.w3.org/2000/svg" width="35" height="36" viewBox="-10 -10 40 41" id="ico-fb" y="1214"><path fill="#4979C3" fill-rule="evenodd" d="M19.167 0H.834A.836.836 0 000 .838v18.431c0 .463.373.838.834.838h9.791v-7.54h-2.5V9.425h2.5V6.912c0-2.597 1.636-3.875 3.94-3.875a21.2 21.2 0 012.329.12V5.87h-1.598c-1.254 0-1.546.599-1.546 1.477v2.077h3.125l-.625 3.142h-2.5l.05 7.54h5.367c.46 0 .833-.375.833-.838V.838A.836.836 0 0019.167 0"/></svg> -->
<svg xmlns="http://www.w3.org/2000/svg" width="40" height="41" viewBox="-10 -10 40 41" id="ico-fb" y="1214"><path fill="#4979C3" fill-rule="evenodd" d="M19.167 0H.834A.836.836 0 000 .838v18.431c0 .463.373.838.834.838h9.791v-7.54h-2.5V9.425h2.5V6.912c0-2.597 1.636-3.875 3.94-3.875a21.2 21.2 0 012.329.12V5.87h-1.598c-1.254 0-1.546.599-1.546 1.477v2.077h3.125l-.625 3.142h-2.5l.05 7.54h5.367c.46 0 .833-.375.833-.838V.838A.836.836 0 0019.167 0"/></svg>