<svg width="40" height="41" viewBox="0 0 40 41" fill="none" xmlns="http://www.w3.org/2000/svg">
<path fill-rule="evenodd" clip-rule="evenodd" d="M29.167 10H10.834C10.7242 10.0003 10.6156 10.0221 10.5142 10.0644C10.4129 10.1067 10.3209 10.1685 10.2434 10.2463C10.166 10.3241 10.1046 10.4164 10.0629 10.5179C10.0211 10.6195 9.99974 10.7282 10 10.838V29.269C10 29.732 10.373 30.107 10.834 30.107H20.625V22.567H18.125V19.425H20.625V16.912C20.625 14.315 22.261 13.037 24.565 13.037C25.3429 13.0342 26.1205 13.0743 26.894 13.157V15.87H25.296C24.042 15.87 23.75 16.469 23.75 17.347V19.424H26.875L26.25 22.566H23.75L23.8 30.106H29.167C29.627 30.106 30 29.731 30 29.268V10.838C30.0005 10.6165 29.9131 10.4038 29.7569 10.2466C29.6007 10.0895 29.3885 10.0008 29.167 10Z" fill="#4979C3"/>
</svg>
