<svg width="46" height="43" viewBox="0 0 46 43" fill="none" xmlns="http://www.w3.org/2000/svg">
<path d="M12.89 22.9458H17.057V29.9648H12.89V22.9458Z" fill="black"/>
<path d="M15.013 21.8299C16.3153 21.8299 17.371 20.7586 17.371 19.4369C17.371 18.1153 16.3153 17.0439 15.013 17.0439C13.7107 17.0439 12.655 18.1153 12.655 19.4369C12.655 20.7586 13.7107 21.8299 15.013 21.8299Z" fill="black"/>
<path d="M24.948 10H10V33H24.948V32.995C28.214 32.95 30.8 32.128 32.636 30.543C34.869 28.616 36 25.574 36 21.5C36 19.553 35.702 17.806 35.115 16.309C34.553 14.876 33.723 13.659 32.648 12.689C30.753 10.981 28.095 10.058 24.948 10.005V10ZM24.665 11.528C27.562 11.528 29.977 12.324 31.648 13.831C33.537 15.534 34.495 18.115 34.495 21.5C34.495 28.21 31.28 31.473 24.665 31.473H11.506V11.528H24.665Z" fill="black"/>
<path d="M24.254 29.9732H18.97V13.3872H24.254H24.041C28.448 13.3872 33.14 15.1522 33.14 21.7012C33.14 28.6272 28.449 29.9722 24.041 29.9722L24.254 29.9732Z" fill="#CD0067"/>
<path d="M18.059 17.6689H19.51C19.837 17.6689 20.086 17.6939 20.258 17.7449C20.488 17.8139 20.686 17.9369 20.851 18.1129C21.015 18.2889 21.141 18.5049 21.226 18.7599C21.312 19.0139 21.355 19.3289 21.355 19.7029C21.355 20.0319 21.315 20.3139 21.234 20.5529C21.136 20.8429 20.996 21.0779 20.814 21.2579C20.6548 21.4058 20.4634 21.5147 20.255 21.5759C20.0266 21.6392 19.7899 21.6679 19.553 21.6609H18.059V17.6689ZM18.852 18.3449V20.9829H19.447C19.669 20.9829 19.829 20.9699 19.927 20.9449C20.0465 20.9181 20.157 20.8609 20.248 20.7789C20.333 20.7009 20.403 20.5729 20.456 20.3939C20.511 20.2159 20.537 19.9729 20.537 19.6649C20.537 19.3569 20.511 19.1209 20.456 18.9559C20.403 18.7909 20.327 18.6629 20.23 18.5709C20.133 18.4789 20.01 18.4159 19.862 18.3829C19.751 18.3579 19.533 18.3449 19.209 18.3449H18.852Z" fill="white"/>
<path d="M17.951 17.5601V21.7691H19.553C19.856 21.7691 20.103 21.7401 20.287 21.6791C20.537 21.5991 20.739 21.4831 20.888 21.3351C21.081 21.1441 21.233 20.8931 21.336 20.5871C21.42 20.3391 21.462 20.0411 21.462 19.7021C21.462 19.3181 21.417 18.9891 21.328 18.7231C21.245 18.4685 21.109 18.2343 20.929 18.0361C20.7548 17.8487 20.5334 17.7115 20.288 17.6391C20.104 17.5861 19.85 17.5601 19.51 17.5601H17.951ZM19.51 17.7781C19.825 17.7781 20.067 17.8021 20.228 17.8501C20.439 17.9131 20.623 18.0271 20.773 18.1881C20.926 18.3521 21.044 18.5561 21.125 18.7951C21.207 19.0371 21.248 19.3431 21.248 19.7031C21.248 20.0181 21.21 20.2911 21.134 20.5171C21.0556 20.7654 20.9203 20.9921 20.739 21.1791C20.5918 21.3156 20.4148 21.4159 20.222 21.4721C20.0041 21.5312 19.7787 21.5578 19.553 21.5511H18.166V17.7781H19.51Z" fill="white"/>
<path d="M18.744 18.2359V21.0919H19.446C19.678 21.0919 19.845 21.0779 19.953 21.0499C20.0892 21.0182 20.2154 20.9529 20.32 20.8599C20.421 20.7679 20.499 20.6259 20.559 20.4259C20.617 20.2359 20.645 19.9869 20.645 19.6649C20.645 19.3419 20.617 19.0989 20.558 18.9219C20.51 18.7596 20.4228 18.6116 20.304 18.4909C20.1868 18.3815 20.0413 18.3071 19.884 18.2759C19.765 18.2489 19.543 18.2359 19.208 18.2359H18.744ZM19.209 18.4539C19.602 18.4539 19.768 18.4739 19.839 18.4899C19.9579 18.5129 20.0681 18.5687 20.157 18.6509C20.2495 18.7465 20.3171 18.8632 20.354 18.9909C20.404 19.1439 20.429 19.3709 20.429 19.6659C20.429 19.9609 20.404 20.1959 20.353 20.3639C20.305 20.5219 20.246 20.6349 20.175 20.6989C20.0967 20.7678 20.0026 20.8163 19.901 20.8399C19.751 20.8678 19.5984 20.8792 19.446 20.8739H18.959V18.4549L19.209 18.4539ZM22.252 21.6599V17.6689H25.164V18.3449H23.045V19.2289H25.017V19.9049H23.045V20.9829H25.239V21.6599H22.252Z" fill="white"/>
<path d="M22.145 17.5601V21.7691H25.348V20.8741H23.153V20.0151H25.125V19.1201H23.153V18.4541H25.272V17.5601H22.145ZM25.057 17.7781V18.2361H22.938V19.3381H24.91V19.7961H22.938V21.0921H25.132V21.5501H22.36V17.7771L25.057 17.7781ZM29.681 21.6601H28.818L28.474 20.7541H26.903L26.578 21.6601H25.735L27.263 17.6691H28.109L29.681 21.6601ZM28.219 20.0771L27.677 18.5991L27.146 20.0771H28.219Z" fill="white"/>
<path d="M27.189 17.5601L25.577 21.7691H26.652L26.977 20.8641H28.4L28.743 21.7691H29.84L28.181 17.5601H27.189ZM28.035 17.7781L29.522 21.5511H28.89L28.547 20.6451H26.826L26.501 21.5511H25.891C26.3729 20.2935 26.8546 19.0358 27.336 17.7781H28.035Z" fill="white"/>
<path d="M26.992 20.1871H28.373L27.676 18.2841L26.992 20.1871ZM27.678 18.9151L28.065 19.9691H27.299L27.678 18.9151ZM30.345 21.6601V17.7021H31.138V20.9831H33.115V21.6601H30.345Z" fill="white"/>
<path d="M30.237 17.5923V21.7683H33.221V20.8733H31.244V17.5923H30.237ZM31.03 17.8113V21.0933H33.007V21.5513H30.452V17.8113H31.03Z" fill="white"/>
</svg>
