<svg width="44" height="44" viewBox="0 0 44 44" fill="none" xmlns="http://www.w3.org/2000/svg">
<path d="M34 22C34 15.3726 28.6274 10 22 10C15.3726 10 10 15.3726 10 22C10 28.6274 15.3726 34 22 34C28.6274 34 34 28.6274 34 22Z" fill="#ECE000"/>
<path fill-rule="evenodd" clip-rule="evenodd" d="M21.937 15.1748C21.047 15.1808 20.126 15.4138 19.404 15.9748C18.864 16.3963 18.4392 16.9474 18.169 17.5768C17.914 18.2168 17.937 18.8988 17.972 19.5298V19.5308C17.992 19.9748 18.042 20.4048 18.001 20.8128L17.995 20.8418C17.7823 20.8745 17.5655 20.8684 17.355 20.8238C17.207 20.7988 17.049 20.7388 16.869 20.6888C16.7855 20.6698 16.6988 20.6692 16.615 20.6872C16.5312 20.7051 16.4524 20.7412 16.384 20.7928L16.379 20.7968L16.371 20.8018C16.264 20.8718 16.118 20.9878 16.111 21.1908C16.111 21.2038 16.111 21.2178 16.114 21.2308C16.1373 21.334 16.1947 21.4263 16.277 21.4928C16.344 21.5498 16.406 21.5878 16.444 21.6168C16.4472 21.6193 16.4506 21.6216 16.454 21.6238C16.778 21.8388 17.137 21.9338 17.449 22.0538C17.665 22.1468 17.854 22.2938 17.897 22.4778C17.951 22.7108 17.851 22.9778 17.721 23.2378V23.2388C17.3678 23.9315 16.847 24.5248 16.206 24.9648C15.8616 25.1975 15.4802 25.3699 15.078 25.4748C14.997 25.5048 14.804 25.5248 14.683 25.7048C14.6746 25.7176 14.6679 25.7314 14.663 25.7458C14.6471 25.7987 14.6445 25.8546 14.6555 25.9087C14.6665 25.9628 14.6907 26.0134 14.726 26.0558C14.7732 26.1108 14.831 26.1557 14.896 26.1878L14.903 26.1928C15.236 26.3818 15.601 26.4638 15.933 26.5478L15.938 26.5488C16.178 26.6028 16.398 26.6318 16.578 26.7078C16.587 26.7228 16.605 26.7828 16.648 26.8818C16.706 27.0638 16.733 27.2778 16.802 27.5018C16.8119 27.5331 16.8299 27.5612 16.8541 27.5833C16.8783 27.6054 16.908 27.6208 16.94 27.6278C17.091 27.6598 17.174 27.6078 17.187 27.6078C17.1934 27.6071 17.1997 27.6061 17.206 27.6048C17.762 27.5088 18.318 27.4248 18.828 27.5508C19.364 27.6898 19.829 28.0548 20.353 28.3698L20.355 28.3718C20.703 28.5878 21.105 28.8008 21.569 28.8158L21.574 28.8168C21.9198 28.8303 22.2662 28.8223 22.611 28.7928C22.898 28.7638 23.178 28.6698 23.421 28.5158L23.431 28.5098C23.983 28.1998 24.472 27.8258 25.009 27.5918L25.011 27.5908C25.185 27.5278 25.403 27.5318 25.645 27.5158H25.652C26.096 27.5018 26.541 27.5258 26.982 27.5838C26.997 27.5858 27.012 27.5858 27.028 27.5838C27.087 27.5747 27.1409 27.5449 27.18 27.4998C27.2022 27.4727 27.2179 27.4409 27.226 27.4068C27.239 27.3618 27.251 27.3408 27.23 27.3768C27.2366 27.3654 27.242 27.3534 27.246 27.3408C27.326 27.0768 27.371 26.8388 27.502 26.6898C27.56 26.6328 27.662 26.6048 27.776 26.6068C27.7843 26.6074 27.7927 26.6074 27.801 26.6068C28.185 26.5608 28.531 26.4248 28.86 26.3088C28.8637 26.3076 28.8674 26.3063 28.871 26.3048C28.993 26.2518 29.175 26.1918 29.3 26.0198L29.302 26.0178L29.301 26.0168C29.325 25.983 29.3418 25.9445 29.3502 25.9038C29.3586 25.8632 29.3585 25.8212 29.3498 25.7806C29.3412 25.74 29.3242 25.7016 29.2999 25.6679C29.2757 25.6342 29.2447 25.6059 29.209 25.5848L29.211 25.5828L29.197 25.5748L29.194 25.5728V25.5738C29.016 25.4618 28.838 25.4458 28.724 25.4048C28.722 25.4041 28.72 25.4034 28.718 25.4028C27.955 25.1628 27.296 24.6448 26.804 24.0138C26.5286 23.669 26.3068 23.2847 26.146 22.8738L26.145 22.8688C26.085 22.6918 26.082 22.4988 26.17 22.3818C26.171 22.3805 26.172 22.3792 26.173 22.3778C26.311 22.1838 26.563 22.0578 26.833 21.9598H26.837C27.135 21.8568 27.461 21.7378 27.73 21.5038C27.8086 21.4597 27.867 21.3867 27.8928 21.3003C27.9186 21.2139 27.9097 21.1208 27.868 21.0408C27.79 20.8828 27.655 20.8018 27.555 20.7428H27.553C27.4722 20.6982 27.383 20.671 27.291 20.6627C27.1991 20.6544 27.1065 20.6654 27.019 20.6948H27.014C26.83 20.7508 26.68 20.8168 26.541 20.8348C26.5377 20.8351 26.5343 20.8354 26.531 20.8358C26.334 20.8708 26.141 20.8788 25.993 20.8258C25.991 20.8028 25.991 20.7598 25.985 20.7068C25.975 20.3838 26.003 20.0508 26.008 19.7058V19.7038C26.023 19.1788 26.044 18.6388 25.966 18.0958L25.965 18.0878C25.795 17.1708 25.202 16.3818 24.451 15.8558C23.9006 15.4816 23.2624 15.2566 22.599 15.2028H22.598C22.3783 15.1813 22.1577 15.172 21.937 15.1748Z" fill="white"/>
</svg>
