<svg width="40" height="37" viewBox="0 0 40 37" fill="none" xmlns="http://www.w3.org/2000/svg">
<path fill-rule="evenodd" clip-rule="evenodd" d="M30 11.934C29.2513 12.2676 28.4568 12.4867 27.643 12.584C28.5014 12.0673 29.1428 11.2563 29.448 10.302C28.6428 10.7818 27.7614 11.12 26.842 11.302C26.4591 10.8908 25.9955 10.563 25.4802 10.3389C24.9649 10.1149 24.4089 9.99954 23.847 10C21.58 10 19.744 11.847 19.744 14.125C19.744 14.448 19.78 14.763 19.85 15.065C18.2164 14.9819 16.6186 14.555 15.1612 13.8123C13.7038 13.0697 12.4194 12.0279 11.392 10.755C11.0272 11.3852 10.8357 12.1008 10.837 12.829C10.836 13.5071 11.002 14.175 11.3203 14.7737C11.6386 15.3724 12.0994 15.8836 12.662 16.262C12.0103 16.2415 11.373 16.0645 10.804 15.746V15.798C10.8022 16.7483 11.1289 17.6699 11.7286 18.407C12.3283 19.1442 13.1643 19.6514 14.095 19.843C13.4908 20.0079 12.8569 20.0318 12.242 19.913C12.5018 20.731 13.0111 21.4471 13.6985 21.9609C14.3859 22.4747 15.217 22.7604 16.075 22.778C14.6239 23.9241 12.8281 24.5464 10.979 24.544C10.6518 24.5441 10.3249 24.5251 10 24.487C11.8742 25.6982 14.0585 26.3417 16.29 26.34C23.838 26.34 27.964 20.054 27.964 14.603C27.964 14.424 27.961 14.246 27.953 14.069C28.757 13.4849 29.4502 12.7619 30 11.934Z" fill="#5DC5E3"/>
</svg>
