<svg xmlns="http://www.w3.org/2000/svg" width="46" height="43" viewBox="0 0 46 43" id="ico-ideal" y="1524"><path d="M2.89 12.946h4.167v7.019H2.89z"/><ellipse cx="5.013" cy="9.437" rx="2.358" ry="2.393"/><path d="M14.948 0H0v23h14.948v-.005c3.266-.045 5.852-.867 7.688-2.452C24.869 18.616 26 15.574 26 11.5c0-1.947-.298-3.694-.885-5.191-.562-1.433-1.392-2.65-2.467-3.62C20.753.981 18.095.058 14.948.005V0zm-.283 1.528c2.897 0 5.312.796 6.983 2.303 1.889 1.703 2.847 4.284 2.847 7.669 0 6.71-3.215 9.973-9.83 9.973H1.506V1.528h13.159z"/><path fill="#CD0067" d="M14.254 19.973H8.97V3.387h5.284-.213c4.407 0 9.099 1.765 9.099 8.314 0 6.926-4.691 8.271-9.099 8.271h.213z"/><g fill="#fff"><path d="M8.059 7.669H9.51c.327 0 .576.025.748.076.23.069.428.192.593.368.164.176.29.392.375.647.086.254.129.569.129.943 0 .329-.04.611-.121.85-.098.29-.238.525-.42.705a1.402 1.402 0 01-.559.318 2.37 2.37 0 01-.702.085H8.059V7.669zm.793.676v2.638h.595c.222 0 .382-.013.48-.038a.713.713 0 00.321-.166c.085-.078.155-.206.208-.385.055-.178.081-.421.081-.729s-.026-.544-.081-.709c-.053-.165-.129-.293-.226-.385s-.22-.155-.368-.188c-.111-.025-.329-.038-.653-.038h-.357z"/><path d="M7.951 7.56v4.209h1.602c.303 0 .55-.029.734-.09.25-.08.452-.196.601-.344.193-.191.345-.442.448-.748.084-.248.126-.546.126-.885 0-.384-.045-.713-.134-.979a1.897 1.897 0 00-.399-.687 1.427 1.427 0 00-.641-.397c-.184-.053-.438-.079-.778-.079H7.951zm1.559.218c.315 0 .557.024.718.072.211.063.395.177.545.338.153.164.271.368.352.607.082.242.123.548.123.908 0 .315-.038.588-.114.814a1.675 1.675 0 01-.395.662 1.291 1.291 0 01-.517.293 2.292 2.292 0 01-.669.079H8.166V7.778H9.51z"/><path d="M8.744 8.236v2.856h.702c.232 0 .399-.014.507-.042a.84.84 0 00.367-.19c.101-.092.179-.234.239-.434.058-.19.086-.439.086-.761 0-.323-.028-.566-.087-.743a1.031 1.031 0 00-.254-.431.86.86 0 00-.42-.215c-.119-.027-.341-.04-.676-.04h-.464zm.465.218c.393 0 .559.02.63.036a.65.65 0 01.318.161.813.813 0 01.197.34c.05.153.075.38.075.675 0 .295-.025.53-.076.698-.048.158-.107.271-.178.335a.632.632 0 01-.274.141 2.095 2.095 0 01-.455.034h-.487V8.455l.25-.001zm3.043 3.206V7.669h2.912v.676h-2.119v.884h1.972v.676h-1.972v1.078h2.194v.677h-2.987z"/><path d="M12.145 7.56v4.209h3.203v-.895h-2.195v-.859h1.972V9.12h-1.972v-.666h2.119V7.56h-3.127zm2.912.218v.458h-2.119v1.102h1.972v.458h-1.972v1.296h2.194v.458H12.36V7.777l2.697.001zm4.624 3.882h-.863l-.344-.906h-1.571l-.325.906h-.843l1.528-3.991h.846l1.572 3.991zm-1.462-1.583l-.542-1.478-.531 1.478h1.073z"/><path d="M17.189 7.56l-1.612 4.209h1.075l.325-.905H18.4l.343.905h1.097L18.181 7.56h-.992zm.846.218l1.487 3.773h-.632l-.343-.906h-1.721l-.325.906h-.61a9447.8 9447.8 0 001.445-3.773h.699z"/><path d="M16.992 10.187h1.381l-.697-1.903-.684 1.903zm.686-1.272l.387 1.054h-.766l.379-1.054zm2.667 2.745V7.702h.793v3.281h1.977v.677h-2.77z"/><path d="M20.237 7.592v4.176h2.984v-.895h-1.977V7.592h-1.007zm.793.219v3.282h1.977v.458h-2.555v-3.74h.578z"/></g></svg>