<svg xmlns="http://www.w3.org/2000/svg" width="26" height="26" viewBox="0 0 0 -1" id="ico-snapchat" y="2917"><g fill="none" fill-rule="evenodd"><rect width="24" height="24" fill="#ECE000" rx="12"/><path fill="#fff" d="M11.937 5.175c-.89.006-1.811.239-2.533.8a4.068 4.068 0 00-1.235 1.602c-.255.64-.232 1.322-.197 1.953v.001c.02.444.07.874.029 1.282l-.006.029a1.783 1.783 0 01-.64-.018c-.148-.025-.306-.085-.486-.135a.588.588 0 00-.485.104l-.005.004-.008.005c-.107.07-.253.186-.26.389 0 .013 0 .027.003.04a.47.47 0 00.163.262c.067.057.129.095.167.124a.185.185 0 00.01.007c.324.215.683.31.995.43h.001c.216.093.404.24.447.424.054.233-.046.5-.176.76v.001a4.663 4.663 0 01-1.515 1.726 3.669 3.669 0 01-1.128.51c-.081.03-.274.05-.395.23a.18.18 0 00-.02.041.334.334 0 00.063.31.538.538 0 00.17.132l.007.005c.333.189.698.271 1.03.355l.005.001c.24.054.46.083.64.159.009.015.027.075.07.174.058.182.085.396.154.62a.187.187 0 00.138.126c.151.032.234-.02.247-.02a.187.187 0 00.019-.003c.556-.096 1.112-.18 1.622-.054.536.139 1.001.504 1.525.819l.002.002c.348.216.75.429 1.214.444v.001h.005a8.363 8.363 0 001.037-.024c.287-.029.567-.123.81-.277l.01-.006c.552-.31 1.041-.684 1.578-.918l.002-.001c.174-.063.392-.059.634-.075h.007c.444-.014.889.01 1.33.068.015.002.03.002.046 0a.252.252 0 00.152-.084.23.23 0 00.046-.093c.013-.045.025-.066.004-.03a.18.18 0 00.016-.036c.08-.264.125-.502.256-.651.058-.057.16-.085.274-.083a.19.19 0 00.025 0c.384-.046.73-.182 1.059-.298a.188.188 0 00.011-.004c.122-.053.304-.113.429-.285l.002-.002-.001-.001a.3.3 0 00-.092-.432l.002-.002-.014-.008-.003-.002v.001c-.178-.112-.356-.128-.47-.169a.185.185 0 00-.006-.002c-.763-.24-1.422-.758-1.914-1.389a4.391 4.391 0 01-.658-1.14l-.001-.005c-.06-.177-.063-.37.025-.487a.178.178 0 00.003-.004c.138-.194.39-.32.66-.418h.004c.298-.103.624-.222.893-.456a.347.347 0 00.138-.463c-.078-.158-.213-.239-.313-.298h-.002a.666.666 0 00-.534-.048h-.005c-.184.056-.334.122-.473.14a.186.186 0 00-.01.001c-.197.035-.39.043-.538-.01-.002-.023-.002-.066-.008-.119-.01-.323.018-.656.023-1.001v-.002c.015-.525.036-1.065-.042-1.608l-.001-.008c-.17-.917-.763-1.706-1.514-2.232a3.846 3.846 0 00-1.852-.653h-.001a5.991 5.991 0 00-.661-.028z"/></g></svg>