<svg xmlns="http://www.w3.org/2000/svg" width="40" height="37" viewBox="-10 -10 40 37" id="ico-tw" y="3119"><path fill="#5DC5E3" fill-rule="evenodd" d="M20 1.934a8.178 8.178 0 01-2.357.65A4.133 4.133 0 0019.448.302a8.202 8.202 0 01-2.606 1A4.088 4.088 0 0013.847 0C11.58 0 9.744 1.847 9.744 4.125c0 .323.036.638.106.94A11.629 11.629 0 011.392.755a4.125 4.125 0 00-.555 2.074 4.13 4.13 0 001.825 3.433 4.066 4.066 0 01-1.858-.516v.052a4.122 4.122 0 003.291 4.045 4.09 4.09 0 01-1.853.07 4.11 4.11 0 003.833 2.865 8.205 8.205 0 01-5.096 1.766A8.39 8.39 0 010 14.487a11.572 11.572 0 006.29 1.853c7.548 0 11.674-6.286 11.674-11.737 0-.179-.003-.357-.011-.534A8.346 8.346 0 0020 1.934"/></svg>