<svg width="638" height="648" viewBox="0 0 638 648" fill="none" xmlns="http://www.w3.org/2000/svg">
<path d="M307 0.190908C281.6 2.99091 270.2 5.99091 249.6 15.2909C222.8 27.2909 196.2 51.1909 180.8 77.0909C164.3 104.791 157 130.791 157 162.591C157 196.491 167.3 227.491 188.8 257.991C209.4 287.291 242.2 310.491 277.4 320.691C286.7 323.391 285.9 323.991 271.5 324.991C241.8 327.091 202.9 334.991 178 343.991C149.8 354.191 131.7 364.091 111 380.391C81.2 404.091 62 423.991 45.7 448.291C27.6 475.391 10.5 516.091 5.9 543.591C4 554.591 0 593.291 0 600.191C0 622.791 16.8 643.091 38.7 646.591C46.6 647.891 590.4 647.891 598.3 646.591C619.5 643.191 636.3 623.991 637.2 602.291C637.4 596.391 634.1 560.991 631.9 546.091C627.1 513.691 607.9 469.691 585.8 440.191C569.8 418.991 555.3 404.191 531.5 385.091C510.6 368.391 497.9 360.391 477.8 351.491C447.8 338.191 403.3 327.691 365.5 324.991C352 324.091 350 323.291 357 321.591C371.2 318.291 394.3 307.391 407.8 297.891C422 287.791 437.4 272.891 447 260.091C480.1 216.191 489.4 155.891 470.9 107.191C449.2 50.1909 400.9 10.2909 343.4 1.69091C335.5 0.490908 312.5 -0.409092 307 0.190908Z" fill="#8B8A87"/>
</svg>
