<svg width="881" height="896" viewBox="0 0 881 896" fill="none" xmlns="http://www.w3.org/2000/svg">
<path d="M428.674 0.151245C395.174 2.35125 369.174 9.25124 340.174 23.6512C305.674 40.6512 275.374 67.5512 253.774 100.451C244.974 113.951 233.374 137.951 228.174 153.851C220.174 178.051 217.374 196.351 217.374 223.551C217.474 268.251 228.474 305.951 252.874 344.951C283.274 393.351 329.574 427.951 386.674 444.551C397.374 447.651 397.074 447.851 381.174 449.051C297.274 455.351 223.874 477.251 174.174 510.851C132.674 538.951 91.2743 579.151 65.4743 616.551C46.7743 643.751 24.8743 689.651 15.7743 720.651C8.57433 745.351 6.87433 755.251 2.07433 801.551C-0.125668 823.351 -0.425668 828.351 0.474332 836.151C2.47433 853.551 9.77433 868.151 21.9743 879.051C28.7743 885.051 41.0743 891.551 49.6743 893.751C54.2743 894.851 121.174 895.051 440.674 895.051C806.774 895.051 826.474 894.951 832.574 893.251C849.374 888.651 865.474 875.951 873.374 860.951C878.574 851.051 880.774 842.551 880.974 831.651C881.074 823.551 875.974 769.951 873.674 754.951C867.174 712.351 843.474 656.051 815.274 616.051C789.374 579.251 749.174 540.351 707.174 511.451C681.174 493.551 644.974 477.651 605.174 466.651C575.174 458.351 532.174 451.251 498.174 448.951C485.674 448.151 483.674 447.251 490.774 445.551C518.574 438.951 553.774 421.251 577.674 401.651C624.874 362.951 653.674 311.751 662.274 251.051C664.274 236.751 664.474 210.551 662.774 196.051C656.774 146.651 630.874 96.3513 592.674 60.0513C559.974 28.7513 512.974 6.65125 468.674 1.65125C458.474 0.451245 436.374 -0.348755 428.674 0.151245Z" fill="#8B8A87"/>
</svg>
